# xmcd
#
# Track frame offsets: 
#        150
#        18785
#        40822
#        56800
#        71182
#        83687
#        100417
#        125812
#        140492
#        158672
#        173715
#        190405
#
# Disc length: 2768 seconds
#
# Revision: 3
# Processed by: cddbd v1.5.2PL0 Copyright (c) Steve Scherf et al.
# Submitted via: ExactAudioCopy v1.0b1
#
DISCID=a50ace0c
DTITLE=The Blues Factory - Take-A-Stroll!
DYEAR=1998
DGENRE=Blues
TTITLE0=Strollin' With Bone
TTITLE1=Smoke
TTITLE2=Just One More Time
TTITLE3=Six-pack Woman
TTITLE4=Too Much Tequila
TTITLE5=I Don't Believe
TTITLE6=You Had Your Chance
TTITLE7=Look At The Moon
TTITLE8=Hot Little Mama
TTITLE9=I'm Gonna Hit That Highway
TTITLE10=Huckle Boogie
TTITLE11=Next Time You See Me
EXTD=
EXTT0=
EXTT1=
EXTT2=
EXTT3=
EXTT4=
EXTT5=
EXTT6=
EXTT7=
EXTT8=
EXTT9=
EXTT10=
EXTT11=
PLAYORDER=
